<?xml version="1.0" encoding="utf-8"?>
<!-- Generator: Adobe Illustrator 24.2.0, SVG Export Plug-In . SVG Version: 6.00 Build 0)  -->
<svg version="1.1" id="Layer_1" xmlns="http://www.w3.org/2000/svg" xmlns:xlink="http://www.w3.org/1999/xlink" x="0px" y="0px"
	 viewBox="0 0 38.69 38.69" style="enable-background:new 0 0 38.69 38.69;" xml:space="preserve">
<style type="text/css">
	.st0{fill:#3C3B3A;}
</style>
<path id="Icon_awesome-bowling-ball" class="st0" d="M19.35,0C8.66,0,0,8.66,0,19.35s8.66,19.35,19.35,19.35
	c10.68,0,19.35-8.66,19.35-19.35C38.7,8.66,30.04,0,19.35,0C19.35,0,19.35,0,19.35,0z M9.36,14.36c-1.38,0-2.5-1.12-2.5-2.5
	s1.12-2.5,2.5-2.5s2.5,1.12,2.5,2.5c0,1.38-1.11,2.5-2.49,2.5C9.37,14.36,9.37,14.36,9.36,14.36z M14.35,6.87
	c0-1.38,1.12-2.5,2.5-2.5s2.5,1.12,2.5,2.5c0,1.38-1.12,2.5-2.5,2.5c0,0,0,0,0,0c-1.38,0-2.5-1.11-2.5-2.49
	C14.35,6.87,14.35,6.87,14.35,6.87z M18.1,18.1c-1.38,0-2.5-1.12-2.5-2.5s1.12-2.5,2.5-2.5s2.5,1.12,2.5,2.5
	c0,1.38-1.11,2.5-2.49,2.5C18.11,18.1,18.1,18.1,18.1,18.1z"/>
</svg>
