<?xml version="1.0" encoding="utf-8"?>
<!-- Generator: Adobe Illustrator 24.2.0, SVG Export Plug-In . SVG Version: 6.00 Build 0)  -->
<svg version="1.1" id="Layer_1" xmlns="http://www.w3.org/2000/svg" xmlns:xlink="http://www.w3.org/1999/xlink" x="0px" y="0px"
	 viewBox="0 0 38.69 38.69" style="enable-background:new 0 0 38.69 38.69;" xml:space="preserve">
<style type="text/css">
	.st0{fill:#3C3B3A;}
</style>
<path id="Icon_awesome-basketball-ball" class="st0" d="M16.56,0.18c-3.5,0.5-6.8,1.95-9.53,4.2l6.04,6.04
	C15.29,7.46,16.52,3.88,16.56,0.18z M19.35,16.7L31.67,4.38C28.45,1.73,24.47,0.2,20.32,0c-0.01,4.75-1.62,9.36-4.58,13.08
	L19.35,16.7z M4.38,7.03c-2.25,2.73-3.7,6.03-4.2,9.53c3.7-0.05,7.28-1.27,10.23-3.5L4.38,7.03z M25.61,22.96
	c3.72-2.96,8.33-4.57,13.08-4.58c-0.2-4.16-1.73-8.14-4.38-11.35L22,19.35L25.61,22.96z M19.35,22L7.03,34.32
	c3.21,2.64,7.2,4.18,11.35,4.38c0.01-4.75,1.62-9.36,4.58-13.08L19.35,22z M34.32,31.67c2.25-2.73,3.7-6.03,4.2-9.53
	c-3.7,0.05-7.28,1.28-10.24,3.5L34.32,31.67z M13.08,15.74C9.37,18.7,4.75,20.31,0,20.31c0.2,4.16,1.73,8.14,4.38,11.35L16.7,19.35
	L13.08,15.74z M22.13,38.52c3.5-0.5,6.8-1.95,9.53-4.2l-6.04-6.04C23.41,31.24,22.19,34.82,22.13,38.52L22.13,38.52z"/>
</svg>
