<?xml version="1.0" encoding="utf-8"?>
<!-- Generator: Adobe Illustrator 24.2.0, SVG Export Plug-In . SVG Version: 6.00 Build 0)  -->
<svg version="1.1" id="Layer_1" xmlns="http://www.w3.org/2000/svg" xmlns:xlink="http://www.w3.org/1999/xlink" x="0px" y="0px"
	 viewBox="0 0 37.68 37.68" style="enable-background:new 0 0 37.68 37.68;" xml:space="preserve">
<style type="text/css">
	.st0{fill:#3C3B3A;}
</style>
<path id="Icon_map-gym" class="st0" d="M13.22,34.72c0.3,0.32,0.28,0.83-0.04,1.13c0,0,0,0,0,0l-1.73,1.62
	c-0.32,0.3-0.83,0.28-1.13-0.04L0.21,26.54c-0.3-0.32-0.28-0.83,0.04-1.13c0,0,0,0,0,0l1.74-1.62c0.32-0.3,0.83-0.28,1.13,0.04
	L13.22,34.72z M26.11,14.23c0.3,0.32,0.28,0.83-0.04,1.13c0,0,0,0,0,0l-10.92,10.2c-0.32,0.3-0.83,0.28-1.13-0.04l-2.61-2.81
	c-0.3-0.32-0.28-0.83,0.04-1.13c0,0,0,0,0,0l10.92-10.2c0.32-0.3,0.83-0.28,1.13,0.04L26.11,14.23L26.11,14.23z M16.93,31.24
	c0.3,0.32,0.28,0.83-0.04,1.13c0,0,0,0,0,0L15.15,34c-0.32,0.3-0.83,0.28-1.13-0.04L3.93,23.07c-0.3-0.32-0.28-0.83,0.04-1.13
	c0,0,0,0,0,0l1.73-1.62c0.32-0.3,0.83-0.28,1.13,0.04L16.93,31.24z M33.76,14.62c0.3,0.32,0.28,0.83-0.04,1.13c0,0,0,0,0,0
	l-1.74,1.62c-0.32,0.3-0.83,0.28-1.13-0.04L20.75,6.44c-0.3-0.32-0.28-0.83,0.04-1.13c0,0,0,0,0,0l1.74-1.63
	c0.32-0.3,0.83-0.28,1.13,0.04L33.76,14.62z M37.47,11.15c0.3,0.32,0.28,0.83-0.04,1.13l-1.73,1.62c-0.32,0.3-0.83,0.28-1.13-0.04
	L24.47,2.97c-0.3-0.32-0.28-0.83,0.04-1.13l1.74-1.62c0.32-0.3,0.82-0.28,1.12,0.04c0,0,0,0,0,0L37.47,11.15z"/>
</svg>
