<?xml version="1.0" encoding="utf-8"?>
<!-- Generator: Adobe Illustrator 24.2.0, SVG Export Plug-In . SVG Version: 6.00 Build 0)  -->
<svg version="1.1" id="Layer_1" xmlns="http://www.w3.org/2000/svg" xmlns:xlink="http://www.w3.org/1999/xlink" x="0px" y="0px"
	 viewBox="0 0 38.35 38.35" style="enable-background:new 0 0 38.35 38.35;" xml:space="preserve">
<style type="text/css">
	.st0{fill:#3C3B3A;}
</style>
<path id="Icon_map-climbing" class="st0" d="M4.34,16.42c-0.27,0.56-0.42,1.18-0.42,1.81l0.16,9.69l-3.36,7.21
	c-0.58,1.06-0.19,2.38,0.87,2.96s2.38,0.19,2.96-0.87l3.7-7.88c0.08-0.19,0.14-0.38,0.17-0.59l0.02-0.3l-0.03-5.99l5.68,2.47
	l0.92,5.85c0.26,1.18,1.42,1.93,2.6,1.67c0.89-0.19,1.56-0.92,1.7-1.81c0.03-0.2,0.03-0.4,0.01-0.6l-1.12-7.06
	c-0.14-0.69-0.59-1.27-1.23-1.57l-5.08-2.25l3.23-5.6l1.6,2.03c0.17,0.19,0.38,0.34,0.62,0.43l6.11,1.78
	c0.92,0.21,1.84-0.38,2.05-1.3c0.18-0.82-0.25-1.65-1.04-1.97l-0.09-0.03l-5.31-1.56l-4-4.78c-0.61-0.66-1.43-1.09-2.32-1.23
	c-1.57-0.23-3.13,0.49-3.97,1.84L4.34,16.42z M21.87,30.3l-0.39,2.9l-10.51,2.55l0.1,1.79H36.7c0.9,0,1.64-0.72,1.64-1.63
	c0,0,0,0,0-0.01L38.32,1.51l-3.51-0.82l-2.02,9.05l-3.37,1.41l-2.99,8.34l2.84,6.38l-0.8,2.45L21.87,30.3z M14.73,6.52
	c1.8-0.01,3.25-1.47,3.24-3.27S16.5-0.01,14.7,0c-1.79,0.01-3.24,1.46-3.24,3.26C11.46,5.06,12.93,6.52,14.73,6.52z M8.22,7.03
	c0.26-0.44,0.1-1.01-0.34-1.27c0,0,0,0-0.01,0L6.29,4.83c-0.45-0.26-1.02-0.1-1.28,0.35l-4.88,8.39c-0.25,0.45-0.1,1.01,0.34,1.27
	c0,0,0,0,0,0l1.59,0.91c0.44,0.26,1.01,0.11,1.27-0.34L8.22,7.03z"/>
</svg>
